<svg width="132" height="132" viewBox="0 0 132 132" fill="none" xmlns="http://www.w3.org/2000/svg">
<g clip-path="url(#clip0_480_813)">
<path d="M105.5 0L56 22V55C56 85.525 77.12 114.07 105.5 121C133.88 114.07 155 85.525 155 55V22L105.5 0ZM105.5 21.45C108.763 21.45 111.953 22.4177 114.667 24.2308C117.38 26.0438 119.495 28.6207 120.744 31.6357C121.993 34.6507 122.32 37.9683 121.683 41.169C121.046 44.3697 119.475 47.3097 117.167 49.6173C114.86 51.9248 111.92 53.4963 108.719 54.133C105.518 54.7696 102.201 54.4429 99.1857 53.194C96.1707 51.9452 93.5938 49.8303 91.7808 47.1169C89.9677 44.4035 89 41.2134 89 37.95C89 33.5739 90.7384 29.3771 93.8327 26.2827C96.9271 23.1884 101.124 21.45 105.5 21.45ZM105.5 64.9C116.5 64.9 138.5 70.895 138.5 81.84C134.888 87.2857 129.984 91.7528 124.226 94.8429C118.468 97.9331 112.035 99.5503 105.5 99.5503C98.9652 99.5503 92.532 97.9331 86.774 94.8429C81.016 91.7528 76.1122 87.2857 72.5 81.84C72.5 70.895 94.5 64.9 105.5 64.9Z" fill="black" fill-opacity="0.3"/>
</g>
<defs>
<clipPath id="clip0_480_813">
<rect width="132" height="132" fill="white"/>
</clipPath>
</defs>
</svg>
