<svg width="40" height="40" viewBox="0 0 40 40" fill="none" xmlns="http://www.w3.org/2000/svg">
<path d="M12.1467 20.48C11.8267 20.7989 11.6667 21.1944 11.6667 21.6667V26.6667C11.6667 27.1389 11.8267 27.535 12.1467 27.855C12.4667 28.175 12.8622 28.3344 13.3333 28.3333C13.8044 28.3322 14.2006 28.1722 14.5217 27.8533C14.8428 27.5344 15.0022 27.1389 15 26.6667V21.6667C15 21.1944 14.84 20.7989 14.52 20.48C14.2 20.1611 13.8044 20.0011 13.3333 20C12.8622 19.9989 12.4667 20.1589 12.1467 20.48ZM25.48 12.1467C25.16 12.4656 25 12.8611 25 13.3333V26.6667C25 27.1389 25.16 27.535 25.48 27.855C25.8 28.175 26.1956 28.3344 26.6667 28.3333C27.1378 28.3322 27.5339 28.1722 27.855 27.8533C28.1761 27.5344 28.3356 27.1389 28.3333 26.6667V13.3333C28.3333 12.8611 28.1733 12.4656 27.8533 12.1467C27.5333 11.8278 27.1378 11.6678 26.6667 11.6667C26.1956 11.6656 25.8 11.8256 25.48 12.1467ZM18.8133 23.8133C18.4933 24.1322 18.3333 24.5278 18.3333 25V26.6667C18.3333 27.1389 18.4933 27.535 18.8133 27.855C19.1333 28.175 19.5289 28.3344 20 28.3333C20.4711 28.3322 20.8672 28.1722 21.1883 27.8533C21.5094 27.5344 21.6689 27.1389 21.6667 26.6667V25C21.6667 24.5278 21.5067 24.1322 21.1867 23.8133C20.8667 23.4944 20.4711 23.3344 20 23.3333C19.5289 23.3322 19.1333 23.4922 18.8133 23.8133ZM8.33333 35C7.41667 35 6.63222 34.6739 5.98 34.0217C5.32778 33.3694 5.00111 32.5844 5 31.6667V8.33333C5 7.41667 5.32667 6.63222 5.98 5.98C6.63333 5.32778 7.41778 5.00111 8.33333 5H31.6667C32.5833 5 33.3683 5.32667 34.0217 5.98C34.675 6.63333 35.0011 7.41778 35 8.33333V31.6667C35 32.5833 34.6739 33.3683 34.0217 34.0217C33.3694 34.675 32.5844 35.0011 31.6667 35H8.33333ZM21.1883 19.5217C21.5072 19.2017 21.6667 18.8056 21.6667 18.3333C21.6667 17.8611 21.5067 17.4656 21.1867 17.1467C20.8667 16.8278 20.4711 16.6678 20 16.6667C19.5289 16.6656 19.1333 16.8256 18.8133 17.1467C18.4933 17.4678 18.3333 17.8633 18.3333 18.3333C18.3333 18.8033 18.4933 19.1994 18.8133 19.5217C19.1333 19.8439 19.5289 20.0033 20 20C20.4711 19.9967 20.8672 19.8367 21.1883 19.52" fill="#34AAB3"/>
</svg>
