<svg width="40" height="40" viewBox="0 0 40 40" fill="none" xmlns="http://www.w3.org/2000/svg">
<path d="M9.99967 36.6667H29.9997C30.9163 36.6667 31.6663 35.9167 31.6663 35V6.66667C31.6663 4.83333 30.1663 3.33333 28.333 3.33333H11.6663C9.83301 3.33333 8.33301 4.83333 8.33301 6.66667V35C8.33301 35.9167 9.08301 36.6667 9.99967 36.6667ZM21.6663 10H24.9997V13.3333H21.6663V10ZM21.6663 16.6667H24.9997V20H21.6663V16.6667ZM21.6663 23.3333H24.9997V26.6667H21.6663V23.3333ZM14.9997 10H18.333V13.3333H14.9997V10ZM14.9997 16.6667H18.333V20H14.9997V16.6667ZM14.9997 23.3333H18.333V26.6667H14.9997V23.3333Z" fill="#EAE31D"/>
</svg>
