<svg width="30" height="30" viewBox="0 0 30 30" fill="none" xmlns="http://www.w3.org/2000/svg">
<rect width="30" height="30" rx="8" fill="#080BCC"/>
<path d="M26.7188 23.2793V28.125C26.7188 28.2493 26.6694 28.3685 26.5815 28.4565C26.4935 28.5444 26.3743 28.5937 26.25 28.5937C26.1257 28.5937 26.0065 28.5444 25.9185 28.4565C25.8306 28.3685 25.7812 28.2493 25.7812 28.125V23.2793C25.777 21.8382 25.4357 20.4181 24.7845 19.1325C24.1334 17.8469 23.1905 16.7315 22.0312 15.8754V23.7082C22.0314 23.8092 21.9988 23.9076 21.9385 23.9887C21.8781 24.0697 21.7932 24.1291 21.6964 24.1579C21.5995 24.1868 21.4959 24.1836 21.4011 24.1488C21.3062 24.114 21.2251 24.0495 21.1699 23.9648L19.9219 22.0535L19.9078 22.0312C19.6606 21.5997 19.252 21.284 18.772 21.1537C18.2921 21.0234 17.78 21.0891 17.3484 21.3363C16.9169 21.5836 16.6012 21.9921 16.4709 22.4721C16.3406 22.9521 16.4063 23.4642 16.6535 23.8957L19.2551 27.8684C19.291 27.9198 19.3163 27.9779 19.3294 28.0393C19.3425 28.1007 19.3431 28.1641 19.3312 28.2257C19.3193 28.2873 19.2952 28.3459 19.2602 28.3981C19.2253 28.4502 19.1802 28.4948 19.1277 28.5291C19.0752 28.5635 19.0163 28.587 18.9545 28.5982C18.8928 28.6094 18.8294 28.6081 18.7682 28.5943C18.7069 28.5806 18.6491 28.5546 18.5981 28.5181C18.547 28.4816 18.5039 28.4352 18.4711 28.3816L15.8625 24.3973C15.8571 24.3903 15.8524 24.3828 15.8484 24.375C15.48 23.7303 15.3816 22.966 15.5745 22.249C15.7674 21.5319 16.2361 20.9202 16.8783 20.5474C17.5204 20.1746 18.284 20.0708 19.0024 20.2588C19.7207 20.4468 20.3356 20.9112 20.7129 21.5508L21.0961 22.1367V7.5C21.0961 7.37568 21.0467 7.25645 20.9588 7.16854C20.8709 7.08064 20.7517 7.03125 20.6273 7.03125H18.75C18.6257 7.03125 18.5065 6.98186 18.4185 6.89396C18.3306 6.80605 18.2812 6.68682 18.2812 6.5625C18.2812 6.43818 18.3306 6.31895 18.4185 6.23104C18.5065 6.14314 18.6257 6.09375 18.75 6.09375H20.625C20.998 6.09375 21.3556 6.24191 21.6194 6.50563C21.8831 6.76935 22.0312 7.12704 22.0312 7.5V14.7398C23.4643 15.6578 24.6442 16.9204 25.4632 18.4123C26.2821 19.9041 26.7138 21.5775 26.7188 23.2793ZM9.375 6.09375H7.5C7.12704 6.09375 6.76935 6.24191 6.50563 6.50563C6.24191 6.76935 6.09375 7.12704 6.09375 7.5V23.4375C6.09375 23.5618 6.14314 23.681 6.23104 23.769C6.31895 23.8569 6.43818 23.9062 6.5625 23.9062C6.68682 23.9062 6.80605 23.8569 6.89396 23.769C6.98186 23.681 7.03125 23.5618 7.03125 23.4375V7.5C7.03125 7.37568 7.08064 7.25645 7.16854 7.16854C7.25645 7.08064 7.37568 7.03125 7.5 7.03125H9.375C9.49932 7.03125 9.61855 6.98186 9.70646 6.89396C9.79436 6.80605 9.84375 6.68682 9.84375 6.5625C9.84375 6.43818 9.79436 6.31895 9.70646 6.23104C9.61855 6.14314 9.49932 6.09375 9.375 6.09375ZM18.1441 11.8559C18.1006 11.8123 18.0489 11.7777 17.992 11.7541C17.9351 11.7305 17.8741 11.7184 17.8125 11.7184C17.7509 11.7184 17.6899 11.7305 17.633 11.7541C17.5761 11.7777 17.5244 11.8123 17.4809 11.8559L14.5312 14.8055V1.875C14.5312 1.75068 14.4819 1.63145 14.394 1.54354C14.306 1.45564 14.1868 1.40625 14.0625 1.40625C13.9382 1.40625 13.819 1.45564 13.731 1.54354C13.6431 1.63145 13.5938 1.75068 13.5938 1.875V14.8055L10.6441 11.8559C10.5562 11.7679 10.4369 11.7185 10.3125 11.7185C10.1881 11.7185 10.0688 11.7679 9.98086 11.8559C9.8929 11.9438 9.84349 12.0631 9.84349 12.1875C9.84349 12.3119 9.8929 12.4312 9.98086 12.5191L13.7309 16.2691C13.7744 16.3127 13.8261 16.3473 13.883 16.3709C13.9399 16.3945 14.0009 16.4066 14.0625 16.4066C14.1241 16.4066 14.1851 16.3945 14.242 16.3709C14.2989 16.3473 14.3506 16.3127 14.3941 16.2691L18.1441 12.5191C18.1877 12.4756 18.2223 12.4239 18.2459 12.367C18.2695 12.3101 18.2816 12.2491 18.2816 12.1875C18.2816 12.1259 18.2695 12.0649 18.2459 12.008C18.2223 11.9511 18.1877 11.8994 18.1441 11.8559Z" fill="white"/>
</svg>
