<svg width="40" height="40" viewBox="0 0 40 40" fill="none" xmlns="http://www.w3.org/2000/svg">
<path d="M11.25 5C9.5924 5 8.00269 5.65848 6.83058 6.83058C5.65848 8.00269 5 9.5924 5 11.25V28.75C5 30.4076 5.65848 31.9973 6.83058 33.1694C8.00269 34.3415 9.5924 35 11.25 35H28.75C30.4076 35 31.9973 34.3415 33.1694 33.1694C34.3415 31.9973 35 30.4076 35 28.75V11.25C35 9.5924 34.3415 8.00269 33.1694 6.83058C31.9973 5.65848 30.4076 5 28.75 5H11.25ZM12.5 12.5H27.5C27.8315 12.5 28.1495 12.6317 28.3839 12.8661C28.6183 13.1005 28.75 13.4185 28.75 13.75C28.75 14.0815 28.6183 14.3995 28.3839 14.6339C28.1495 14.8683 27.8315 15 27.5 15H12.5C12.1685 15 11.8505 14.8683 11.6161 14.6339C11.3817 14.3995 11.25 14.0815 11.25 13.75C11.25 13.4185 11.3817 13.1005 11.6161 12.8661C11.8505 12.6317 12.1685 12.5 12.5 12.5Z" fill="#EEB600"/>
</svg>
