<svg width="32" height="32" viewBox="0 0 32 32" fill="none" xmlns="http://www.w3.org/2000/svg">
<path d="M28.8183 5.18875H30.0017C30.4437 5.18875 30.8676 5.36434 31.1802 5.6769C31.4927 5.98946 31.6683 6.41339 31.6683 6.85541V18.5221C31.6683 18.9641 31.4927 19.388 31.1802 19.7006C30.8676 20.0132 30.4437 20.1887 30.0017 20.1887H26.6683L19.7183 10.4621C19.3141 9.89648 18.7432 9.47143 18.0854 9.24639C17.4276 9.02136 16.716 9.00762 16.05 9.20708L11.9067 10.4504C11.3303 10.623 10.718 10.6363 10.1346 10.489C9.55129 10.3417 9.0187 10.0392 8.59333 9.61375L8.105 9.12541C7.93065 8.9511 7.79715 8.74027 7.71411 8.50813C7.63107 8.276 7.60057 8.02833 7.6248 7.78298C7.64903 7.53763 7.7274 7.30071 7.85424 7.0893C7.98109 6.87789 8.15325 6.69725 8.35833 6.56041L17.36 0.560414C17.8974 0.20193 18.5273 0.00730281 19.1732 0.000201507C19.8192 -0.0068998 20.4532 0.17383 20.9983 0.520413L27.925 4.92875C28.1916 5.09815 28.5025 5.18832 28.8183 5.18875ZM5.045 19.0137L2.35167 21.3704C2.16759 21.5318 2.02132 21.7317 1.92325 21.956C1.82518 22.1803 1.77772 22.4234 1.78425 22.6681C1.79077 22.9128 1.85112 23.1531 1.961 23.3718C2.07087 23.5906 2.22759 23.7824 2.42 23.9337L10.9867 30.6671C11.175 30.8153 11.3931 30.9212 11.626 30.9775C11.859 31.0338 12.1014 31.0392 12.3366 30.9933C12.5718 30.9475 12.7944 30.8514 12.9891 30.7117C13.1839 30.572 13.3462 30.3919 13.465 30.1837L14.6383 28.1304C14.9877 27.5189 15.1345 26.8125 15.0575 26.1125C14.9806 25.4124 14.6839 24.7547 14.21 24.2337L9.70667 19.2804C9.1194 18.6343 8.30204 18.2444 7.43033 18.1945C6.55861 18.1446 5.70212 18.4388 5.045 19.0137ZM8.41 3.52208H1.66667C1.22464 3.52208 0.800716 3.69768 0.488155 4.01024C0.175595 4.3228 0 4.74672 0 5.18875V17.7154C8.92331e-05 18.3876 0.20343 19.0442 0.583333 19.5987L0.706667 19.4887L3.39833 17.1321C4.54832 16.1258 6.04726 15.6109 7.57287 15.6982C9.09848 15.7855 10.5289 16.4679 11.5567 17.5987L16.06 22.5521C16.8888 23.4635 17.4078 24.614 17.5425 25.8386C17.6772 27.0631 17.4208 28.2989 16.81 29.3687L15.7183 31.2787C16.1893 31.4573 16.6946 31.5269 17.1963 31.4821C17.698 31.4374 18.1831 31.2795 18.615 31.0204L25.965 26.6104C26.1621 26.492 26.3325 26.3341 26.4656 26.1466C26.5987 25.9592 26.6916 25.7462 26.7384 25.5211C26.7852 25.296 26.7849 25.0636 26.7376 24.8386C26.6902 24.6137 26.5969 24.4009 26.4633 24.2137L17.685 11.9154C17.5839 11.7742 17.4412 11.668 17.2769 11.6119C17.1125 11.5557 16.9347 11.5523 16.7683 11.6021L12.625 12.8437C11.6163 13.1463 10.5446 13.1702 9.5234 12.9129C8.50225 12.6555 7.5698 12.1266 6.825 11.3821L6.33667 10.8937C5.90064 10.458 5.56675 9.93084 5.35907 9.35041C5.15138 8.76998 5.07508 8.15069 5.13566 7.53721C5.19625 6.92372 5.3922 6.33132 5.70941 5.80273C6.02661 5.27413 6.45716 4.8225 6.97 4.48041L8.41 3.52208Z" fill="#A97A22"/>
</svg>
