<svg width="40" height="40" viewBox="0 0 40 40" fill="none" xmlns="http://www.w3.org/2000/svg">
<path fill-rule="evenodd" clip-rule="evenodd" d="M7.49967 8.33331C7.05765 8.33331 6.63372 8.50891 6.32116 8.82147C6.0086 9.13403 5.83301 9.55795 5.83301 9.99998V25.8333C5.83301 26.2753 6.0086 26.6993 6.32116 27.0118C6.63372 27.3244 7.05765 27.5 7.49967 27.5H32.4997C32.9417 27.5 33.3656 27.3244 33.6782 27.0118C33.9907 26.6993 34.1663 26.2753 34.1663 25.8333V9.99998C34.1663 9.55795 33.9907 9.13403 33.6782 8.82147C33.3656 8.50891 32.9417 8.33331 32.4997 8.33331H7.49967ZM18.7497 14.1666V17.0833H15.833V18.75H18.7497V21.6666H20.4163V18.75H23.333V17.0833H20.4163V14.1666H18.7497ZM9.16634 24.1666V11.6666H30.833V24.1666H9.16634ZM7.49967 10.8333C7.49967 10.6123 7.58747 10.4003 7.74375 10.2441C7.90003 10.0878 8.11199 9.99998 8.33301 9.99998H31.6663C31.8874 9.99998 32.0993 10.0878 32.2556 10.2441C32.4119 10.4003 32.4997 10.6123 32.4997 10.8333V25C32.4997 25.221 32.4119 25.433 32.2556 25.5892C32.0993 25.7455 31.8874 25.8333 31.6663 25.8333H8.33301C8.11199 25.8333 7.90003 25.7455 7.74375 25.5892C7.58747 25.433 7.49967 25.221 7.49967 25V10.8333Z" fill="#0F52B7"/>
<path d="M5.88346 26.2266C5.95831 26.1062 6.06265 26.0069 6.1866 25.9381C6.31055 25.8693 6.45001 25.8332 6.59179 25.8333H33.2351C33.3736 25.8333 33.5099 25.8679 33.6317 25.9338C33.7534 25.9997 33.8569 26.0949 33.9326 26.2108L36.6576 30.3775C36.7398 30.5033 36.7865 30.649 36.7927 30.7992C36.7988 30.9494 36.7642 31.0985 36.6926 31.2306C36.6209 31.3627 36.5148 31.473 36.3856 31.5498C36.2564 31.6265 36.1088 31.6669 35.9585 31.6666H4.00012C3.85155 31.6666 3.70569 31.6269 3.57765 31.5515C3.44961 31.4761 3.34404 31.3679 3.27188 31.2381C3.19972 31.1082 3.1636 30.9614 3.16724 30.8129C3.17089 30.6643 3.21418 30.5195 3.29262 30.3933L5.88346 26.2266Z" fill="#0F52B7"/>
</svg>
