<svg width="40" height="40" viewBox="0 0 40 40" fill="none" xmlns="http://www.w3.org/2000/svg">
<g clip-path="url(#clip0_475_142)">
<path d="M13.3329 17.9333H12.3662C11.047 17.8857 9.73215 18.1096 8.50314 18.5913C7.27413 19.0729 6.15723 19.802 5.22174 20.7333L4.95508 21.0444V30.2444H9.48841V25.0222L10.0995 24.3333L10.3773 24.0111C11.8239 22.525 13.6248 21.4314 15.6106 20.8333C14.6168 20.0765 13.8327 19.0782 13.3329 17.9333Z" fill="#238499"/>
<path d="M34.8219 20.7C33.8864 19.7687 32.7695 19.0396 31.5405 18.5579C30.3115 18.0763 28.9966 17.8523 27.6775 17.9C27.2729 17.9022 26.8687 17.9244 26.4664 17.9667C25.9572 19.0408 25.1946 19.975 24.2441 20.6889C26.3643 21.2749 28.2849 22.4272 29.7997 24.0222L30.0775 24.3333L30.6775 25.0222V30.2556H35.0553V21.0111L34.8219 20.7Z" fill="#238499"/>
<path d="M12.3329 15.7667H12.6773C12.5173 14.3925 12.7584 13.0014 13.3716 11.7612C13.9847 10.5211 14.9438 9.48489 16.1329 8.77778C15.7018 8.11928 15.1072 7.58401 14.4071 7.22438C13.707 6.86476 12.9256 6.69311 12.1392 6.72625C11.3529 6.75939 10.5887 6.99617 9.92133 7.41342C9.25401 7.83067 8.70648 8.41407 8.33237 9.1065C7.95826 9.79893 7.77039 10.5766 7.78716 11.3635C7.80394 12.1504 8.02477 12.9194 8.42804 13.5952C8.83131 14.2711 9.4032 14.8306 10.0877 15.2191C10.7722 15.6075 11.5458 15.8115 12.3329 15.8111V15.7667Z" fill="#238499"/>
<path d="M27.1444 14.9333C27.157 15.1887 27.157 15.4446 27.1444 15.7C27.3575 15.7341 27.5729 15.7527 27.7888 15.7556H27.9999C28.7835 15.7138 29.5429 15.4698 30.2042 15.0474C30.8655 14.625 31.4061 14.0386 31.7735 13.3452C32.1409 12.6519 32.3225 11.8752 32.3006 11.0908C32.2787 10.3064 32.0541 9.54109 31.6486 8.86928C31.2432 8.19748 30.6707 7.64211 29.9868 7.25725C29.303 6.87239 28.5312 6.67115 27.7465 6.67313C26.9618 6.6751 26.191 6.88022 25.5092 7.26852C24.8273 7.65681 24.2576 8.21505 23.8555 8.88889C24.8611 9.54548 25.688 10.4414 26.2621 11.4964C26.8361 12.5514 27.1393 13.7323 27.1444 14.9333Z" fill="#238499"/>
<path d="M19.8553 19.9111C22.5984 19.9111 24.822 17.6875 24.822 14.9444C24.822 12.2014 22.5984 9.97778 19.8553 9.97778C17.1123 9.97778 14.8887 12.2014 14.8887 14.9444C14.8887 17.6875 17.1123 19.9111 19.8553 19.9111Z" fill="#238499"/>
<path d="M20.1221 22.5556C18.6711 22.4976 17.2234 22.7335 15.8658 23.249C14.5083 23.7645 13.2689 24.5491 12.2221 25.5556L11.9443 25.8667V32.9C11.9487 33.1291 11.9981 33.3551 12.0898 33.5651C12.1815 33.7751 12.3137 33.9649 12.4788 34.1238C12.6438 34.2827 12.8386 34.4076 13.052 34.4912C13.2653 34.5748 13.493 34.6155 13.7221 34.6111H26.4888C26.7179 34.6155 26.9456 34.5748 27.1589 34.4912C27.3723 34.4076 27.5671 34.2827 27.7321 34.1238C27.8972 33.9649 28.0294 33.7751 28.1211 33.5651C28.2128 33.3551 28.2622 33.1291 28.2666 32.9V25.8889L27.9999 25.5556C26.9603 24.5455 25.7253 23.7584 24.3706 23.2425C23.016 22.7266 21.5703 22.4929 20.1221 22.5556Z" fill="#238499"/>
</g>
<defs>
<clipPath id="clip0_475_142">
<rect width="40" height="40" fill="white"/>
</clipPath>
</defs>
</svg>
