<svg width="40" height="40" viewBox="0 0 40 40" fill="none" xmlns="http://www.w3.org/2000/svg">
<path d="M15.8333 5H7.5C6.11929 5 5 6.11929 5 7.5V15.8333C5 17.214 6.11929 18.3333 7.5 18.3333H15.8333C17.214 18.3333 18.3333 17.214 18.3333 15.8333V7.5C18.3333 6.11929 17.214 5 15.8333 5Z" fill="#B41DA5"/>
<path d="M15.8333 21.6667H7.5C6.11929 21.6667 5 22.786 5 24.1667V32.5C5 33.8807 6.11929 35 7.5 35H15.8333C17.214 35 18.3333 33.8807 18.3333 32.5V24.1667C18.3333 22.786 17.214 21.6667 15.8333 21.6667Z" fill="#B41DA5"/>
<path d="M32.5003 5H24.167C22.7863 5 21.667 6.11929 21.667 7.5V15.8333C21.667 17.214 22.7863 18.3333 24.167 18.3333H32.5003C33.881 18.3333 35.0003 17.214 35.0003 15.8333V7.5C35.0003 6.11929 33.881 5 32.5003 5Z" fill="#B41DA5"/>
<path d="M21.667 21.6667H25.0003V25H21.667V21.6667ZM25.0003 25H28.3337V28.3334H25.0003V25ZM21.667 28.3334H25.0003V31.6667H21.667V28.3334ZM28.3337 28.3334H31.667V31.6667H28.3337V28.3334ZM31.667 31.6667H35.0003V35H31.667V31.6667ZM25.0003 31.6667H28.3337V35H25.0003V31.6667ZM28.3337 21.6667H31.667V25H28.3337V21.6667ZM31.667 25H35.0003V28.3334H31.667V25Z" fill="#B41DA5"/>
</svg>
