<svg width="132" height="132" viewBox="0 0 132 132" fill="none" xmlns="http://www.w3.org/2000/svg">
<g clip-path="url(#clip0_480_853)">
<path d="M172.193 18.1713L117.443 -0.0786999C116.506 -0.390922 115.494 -0.390922 114.557 -0.0786999L59.8071 18.1713C58.8986 18.4741 58.1085 19.0552 57.5486 19.8321C56.9887 20.609 56.6874 21.5423 56.6875 22.5V68.125C56.6875 69.335 57.1682 70.4955 58.0238 71.3512C58.8795 72.2068 60.0399 72.6875 61.25 72.6875C62.4601 72.6875 63.6205 72.2068 64.4762 71.3512C65.3318 70.4955 65.8125 69.335 65.8125 68.125V28.8304L84.9693 35.2122C79.8796 43.435 78.2611 53.3416 80.4692 62.7566C82.6772 72.1717 88.5314 80.3257 96.7463 85.4283C86.4806 89.4547 77.6066 96.7376 71.1164 106.695C70.7789 107.197 70.5444 107.761 70.4267 108.354C70.3089 108.947 70.3103 109.557 70.4306 110.15C70.5509 110.742 70.7877 111.305 71.1274 111.805C71.4671 112.306 71.9029 112.733 72.4093 113.064C72.9158 113.394 73.4828 113.62 74.0775 113.73C74.6722 113.839 75.2827 113.829 75.8735 113.7C76.4643 113.571 77.0235 113.326 77.5188 112.979C78.0141 112.633 78.4356 112.191 78.7586 111.68C87.3532 98.4941 100.927 90.9375 116 90.9375C131.073 90.9375 144.647 98.4941 153.241 111.68C153.911 112.674 154.944 113.366 156.119 113.604C157.294 113.843 158.515 113.609 159.519 112.954C160.523 112.299 161.229 111.276 161.485 110.104C161.74 108.933 161.524 107.709 160.884 106.695C154.393 96.7376 145.485 89.4547 135.254 85.4283C143.461 80.3259 149.309 72.1772 151.517 62.7691C153.725 53.3609 152.111 43.4611 147.031 35.2407L172.193 26.8572C173.102 26.5545 173.892 25.9735 174.452 25.1966C175.012 24.4197 175.314 23.4862 175.314 22.5285C175.314 21.5707 175.012 20.6373 174.452 19.8604C173.892 19.0834 173.102 18.5025 172.193 18.1998V18.1713ZM143.375 54.4375C143.376 58.7653 142.351 63.0318 140.384 66.8868C138.417 70.7419 135.564 74.0756 132.06 76.6146C128.555 79.1535 124.498 80.8253 120.222 81.4927C115.946 82.1602 111.572 81.8043 107.46 80.4542C103.349 79.1041 99.6153 76.7984 96.5671 73.7262C93.5189 70.6539 91.2425 66.9027 89.9248 62.7804C88.6071 58.658 88.2855 54.282 88.9865 50.0112C89.6875 45.7406 91.391 41.6969 93.9574 38.2121L114.557 45.0558C115.494 45.3681 116.506 45.3681 117.443 45.0558L138.043 38.2121C141.508 42.9116 143.377 48.5981 143.375 54.4375Z" fill="black" fill-opacity="0.3"/>
</g>
<defs>
<clipPath id="clip0_480_853">
<rect width="132" height="132" fill="white"/>
</clipPath>
</defs>
</svg>
