<svg width="132" height="132" viewBox="0 0 132 132" fill="none" xmlns="http://www.w3.org/2000/svg">
<g clip-path="url(#clip0_480_840)">
<path d="M118.32 106.333C116.145 106.333 114.273 105.608 112.704 104.158C111.135 102.708 110.188 100.936 109.862 98.8417L108.775 90.8667C107.727 90.4639 106.741 89.9806 105.817 89.4167C104.892 88.8528 103.985 88.2486 103.095 87.6042L95.6038 90.7458C93.5899 91.632 91.5761 91.7125 89.5622 90.9875C87.5483 90.2625 85.9774 88.9736 84.8497 87.1208L79.1705 77.2125C78.0427 75.3597 77.7205 73.3861 78.2038 71.2917C78.6872 69.1972 79.7747 67.4653 81.4663 66.0959L87.8705 61.2625C87.7899 60.6986 87.7497 60.1541 87.7497 59.6288V56.3663C87.7497 55.8443 87.7899 55.3014 87.8705 54.7375L81.4663 49.9042C79.7747 48.5347 78.6872 46.8028 78.2038 44.7084C77.7205 42.6139 78.0427 40.6403 79.1705 38.7875L84.8497 28.8792C85.9774 27.0264 87.5483 25.7375 89.5622 25.0125C91.5761 24.2875 93.5899 24.3681 95.6038 25.2542L103.095 28.3959C103.982 27.7514 104.908 27.1472 105.875 26.5834C106.841 26.0195 107.808 25.5361 108.775 25.1334L109.862 17.1584C110.184 15.0639 111.132 13.2917 112.704 11.8417C114.277 10.3917 116.149 9.66669 118.32 9.66669H129.679C131.854 9.66669 133.728 10.3917 135.3 11.8417C136.872 13.2917 137.818 15.0639 138.137 17.1584L139.225 25.1334C140.272 25.5361 141.259 26.0195 142.187 26.5834C143.115 27.1472 144.021 27.7514 144.904 28.3959L152.395 25.2542C154.409 24.3681 156.423 24.2875 158.437 25.0125C160.451 25.7375 162.022 27.0264 163.15 28.8792L168.829 38.7875C169.957 40.6403 170.279 42.6139 169.796 44.7084C169.312 46.8028 168.225 48.5347 166.533 49.9042L160.129 54.7375C160.209 55.3014 160.25 55.846 160.25 56.3712V59.6288C160.25 60.1541 160.169 60.6986 160.008 61.2625L166.412 66.0959C168.104 67.4653 169.191 69.1972 169.675 71.2917C170.158 73.3861 169.836 75.3597 168.708 77.2125L162.908 87.1208C161.78 88.9736 160.209 90.2625 158.196 90.9875C156.182 91.7125 154.168 91.632 152.154 90.7458L144.904 87.6042C144.018 88.2486 143.091 88.8528 142.125 89.4167C141.158 89.9806 140.191 90.4639 139.225 90.8667L138.137 98.8417C137.815 100.936 136.869 102.708 135.3 104.158C133.731 105.608 131.857 106.333 129.679 106.333H118.32ZM124.241 74.9167C128.914 74.9167 132.901 73.2653 136.204 69.9625C139.507 66.6597 141.158 62.6722 141.158 58C141.158 53.3278 139.507 49.3403 136.204 46.0375C132.901 42.7347 128.914 41.0834 124.241 41.0834C119.489 41.0834 115.48 42.7347 112.216 46.0375C108.952 49.3403 107.321 53.3278 107.325 58C107.328 62.6722 108.96 66.6597 112.221 69.9625C115.482 73.2653 119.489 74.9167 124.241 74.9167Z" fill="black" fill-opacity="0.3"/>
</g>
<defs>
<clipPath id="clip0_480_840">
<rect width="132" height="132" fill="white"/>
</clipPath>
</defs>
</svg>
