<svg width="34" height="30" viewBox="0 0 34 30" fill="none" xmlns="http://www.w3.org/2000/svg">
<path d="M31.6667 0C32.1087 0 32.5326 0.175595 32.8452 0.488155C33.1577 0.800716 33.3333 1.22464 33.3333 1.66667V10.8333C32.2283 10.8333 31.1685 11.2723 30.3871 12.0537C29.6056 12.8351 29.1667 13.8949 29.1667 15C29.1667 16.1051 29.6056 17.1649 30.3871 17.9463C31.1685 18.7277 32.2283 19.1667 33.3333 19.1667V28.3333C33.3333 28.7754 33.1577 29.1993 32.8452 29.5118C32.5326 29.8244 32.1087 30 31.6667 30H1.66667C1.22464 30 0.800716 29.8244 0.488155 29.5118C0.175595 29.1993 0 28.7754 0 28.3333V19.1667C1.10507 19.1667 2.16488 18.7277 2.94628 17.9463C3.72768 17.1649 4.16667 16.1051 4.16667 15C4.16667 13.8949 3.72768 12.8351 2.94628 12.0537C2.16488 11.2723 1.10507 10.8333 0 10.8333V1.66667C0 1.22464 0.175595 0.800716 0.488155 0.488155C0.800716 0.175595 1.22464 0 1.66667 0H31.6667Z" fill="#2BA239"/>
</svg>
